<svg width="28" height="24" viewBox="0 0 28 24" fill="none" xmlns="http://www.w3.org/2000/svg">
<path d="M5.78662 0.200195H22.2134C22.7216 0.200218 23.1754 0.332224 23.5806 0.594727C23.9907 0.860448 24.3176 1.21434 24.562 1.66016L27.2261 6.95215L27.23 6.95996L27.2349 6.96777C27.339 7.13433 27.4071 7.31683 27.439 7.51562C27.4733 7.73014 27.4897 7.93895 27.4888 8.1416V8.14258C27.4887 8.45254 27.4391 8.75042 27.3403 9.03711C27.2423 9.32146 27.0942 9.58449 26.895 9.82715L16.0171 22.8389C15.7503 23.1501 15.4408 23.387 15.0884 23.5527C14.7348 23.7189 14.3727 23.8007 14.0005 23.7998H13.9995C13.6272 23.7997 13.2652 23.718 12.9116 23.5527C12.5594 23.3881 12.2497 23.151 11.9829 22.8389L1.10498 9.82812C0.906477 9.58531 0.758753 9.3218 0.660645 9.03711C0.561847 8.75042 0.512214 8.45251 0.51123 8.14258C0.51123 7.94053 0.528527 7.73153 0.562988 7.5166C0.594936 7.31757 0.662649 7.13451 0.766113 6.9668L0.77002 6.95996L0.773926 6.95215L3.43701 1.66113C3.68237 1.21503 4.01019 0.860566 4.42041 0.594727C4.82566 0.332146 5.27933 0.200195 5.78662 0.200195ZM4.53076 10.083L12.4243 19.5771L12.7778 20.002V9.75586H4.2583L4.53076 10.083ZM15.2222 20.002L15.5757 19.5771L23.4692 10.083L23.7417 9.75586H15.2222V20.002ZM5.64307 2.75488L3.51025 7.02148L3.36475 7.31152H7.58154L7.63623 7.2002L9.77002 2.93359L9.91455 2.64453H5.69873L5.64307 2.75488ZM12.5767 2.75488L10.4429 7.02148L10.2983 7.31152H17.7017L17.5562 7.02148L15.4233 2.75488L15.3677 2.64453H12.6323L12.5767 2.75488ZM18.23 2.93359L20.3628 7.2002L20.4185 7.31152H24.6343L24.4897 7.02148L22.3569 2.75488L22.3013 2.64453H18.0854L18.23 2.93359Z" fill="#005FFF" stroke="#D7EBFF" stroke-width="0.4"/>
</svg>
