<svg width="32" height="32" viewBox="0 0 32 32" fill="none" xmlns="http://www.w3.org/2000/svg">
<path d="M16.1334 24.6752L16.0001 24.8086L15.8534 24.6752C9.52008 18.9286 5.33342 15.1286 5.33342 11.2752C5.33342 8.60856 7.33342 6.60856 10.0001 6.60856C12.0534 6.60856 14.0534 7.9419 14.7601 9.75523H17.2401C17.9468 7.9419 19.9468 6.60856 22.0001 6.60856C24.6668 6.60856 26.6668 8.60856 26.6668 11.2752C26.6668 15.1286 22.4801 18.9286 16.1334 24.6752ZM22.0001 3.94189C19.6801 3.94189 17.4534 5.02189 16.0001 6.71523C14.5468 5.02189 12.3201 3.94189 10.0001 3.94189C5.89342 3.94189 2.66675 7.15523 2.66675 11.2752C2.66675 16.3019 7.20008 20.4219 14.0668 26.6486L16.0001 28.4086L17.9334 26.6486C24.8001 20.4219 29.3334 16.3019 29.3334 11.2752C29.3334 7.15523 26.1068 3.94189 22.0001 3.94189Z" fill="#FC0077"/>
</svg>
