<svg width="25" height="25" viewBox="0 0 25 25" fill="none" xmlns="http://www.w3.org/2000/svg">
<path d="M12.335 0C13.9707 0 15.5394 0.649788 16.6961 1.80642C17.8527 2.96305 18.5025 4.53178 18.5025 6.1675C18.5025 7.80322 17.8527 9.37195 16.6961 10.5286C15.5394 11.6852 13.9707 12.335 12.335 12.335C10.6993 12.335 9.13055 11.6852 7.97392 10.5286C6.81729 9.37195 6.1675 7.80322 6.1675 6.1675C6.1675 4.53178 6.81729 2.96305 7.97392 1.80642C9.13055 0.649788 10.6993 0 12.335 0ZM12.335 3.08375C11.5171 3.08375 10.7328 3.40864 10.1545 3.98696C9.57614 4.56527 9.25125 5.34964 9.25125 6.1675C9.25125 6.98536 9.57614 7.76972 10.1545 8.34804C10.7328 8.92635 11.5171 9.25125 12.335 9.25125C13.1529 9.25125 13.9372 8.92635 14.5155 8.34804C15.0939 7.76972 15.4187 6.98536 15.4187 6.1675C15.4187 5.34964 15.0939 4.56527 14.5155 3.98696C13.9372 3.40864 13.1529 3.08375 12.335 3.08375ZM12.335 13.8769C16.4518 13.8769 24.67 15.9276 24.67 20.0444V24.67H0V20.0444C0 15.9276 8.21819 13.8769 12.335 13.8769ZM12.335 16.8064C7.75563 16.8064 2.92956 19.0576 2.92956 20.0444V21.7404H21.7404V20.0444C21.7404 19.0576 16.9144 16.8064 12.335 16.8064Z" fill="#A600FF"/>
</svg>
