<svg width="32" height="32" viewBox="0 0 32 32" fill="none" xmlns="http://www.w3.org/2000/svg">
<path d="M27.5 6.36035V18C27.5 24.352 22.352 29.5 16 29.5C9.64802 29.5 4.5 24.352 4.5 18V6.36035L16 2.52734L27.5 6.36035ZM26.25 7.33398L25.916 7.21582L16.166 3.77832L16 3.71973L15.834 3.77832L6.08398 7.21582L5.75 7.33398V18C5.75 23.6605 10.3395 28.25 16 28.25C21.6605 28.25 26.25 23.6605 26.25 18V7.33398Z" fill="#00A92A" stroke="#00A92A"/>
<path d="M21.9917 11.6602C22.1313 11.6602 22.27 11.6877 22.3989 11.7412C22.5278 11.7947 22.645 11.8729 22.7437 11.9717L22.8315 12.0596C22.9302 12.1581 23.0086 12.2755 23.062 12.4043C23.1154 12.5331 23.143 12.6711 23.1431 12.8105C23.1431 12.9501 23.1155 13.0888 23.062 13.2178C23.0086 13.3467 22.9303 13.4639 22.8315 13.5625L15.8472 20.5469C15.7486 20.6456 15.6312 20.7239 15.5024 20.7773C15.3735 20.8308 15.2348 20.8584 15.0952 20.8584C14.9556 20.8584 14.8169 20.8308 14.688 20.7773C14.5592 20.7239 14.4418 20.6456 14.3433 20.5469L10.2339 16.4375C10.1293 16.3334 10.0464 16.2095 9.98975 16.0732C9.93308 15.9369 9.90386 15.7902 9.90381 15.6426C9.90381 15.4949 9.93311 15.3483 9.98975 15.2119C10.0464 15.0755 10.1292 14.9509 10.2339 14.8467C10.3382 14.7419 10.4626 14.6593 10.5991 14.6025C10.7356 14.5458 10.882 14.5166 11.0298 14.5166C11.1775 14.5166 11.324 14.5458 11.4604 14.6025C11.5967 14.6592 11.7205 14.7421 11.8247 14.8467L15.0933 18.1152L21.2407 11.9717C21.3393 11.873 21.4566 11.7947 21.5854 11.7412C21.7142 11.6878 21.8523 11.6602 21.9917 11.6602Z" fill="#00A92A"/>
<path d="M21.9917 11.6602C22.1313 11.6602 22.27 11.6877 22.3989 11.7412C22.5278 11.7947 22.645 11.8729 22.7437 11.9717L22.8315 12.0596C22.9302 12.1581 23.0086 12.2755 23.062 12.4043C23.1154 12.5331 23.143 12.6711 23.1431 12.8105C23.1431 12.9501 23.1155 13.0888 23.062 13.2178C23.0086 13.3467 22.9303 13.4639 22.8315 13.5625L15.8472 20.5469C15.7486 20.6456 15.6312 20.7239 15.5024 20.7773C15.3735 20.8308 15.2348 20.8584 15.0952 20.8584C14.9556 20.8584 14.8169 20.8308 14.688 20.7773C14.5592 20.7239 14.4418 20.6456 14.3433 20.5469L10.2339 16.4375C10.1293 16.3334 10.0464 16.2095 9.98975 16.0732C9.93308 15.9369 9.90386 15.7902 9.90381 15.6426C9.90381 15.4949 9.93311 15.3483 9.98975 15.2119C10.0464 15.0755 10.1292 14.9509 10.2339 14.8467C10.3382 14.7419 10.4626 14.6593 10.5991 14.6025C10.7356 14.5458 10.882 14.5166 11.0298 14.5166C11.1775 14.5166 11.324 14.5458 11.4604 14.6025C11.5967 14.6592 11.7205 14.7421 11.8247 14.8467L15.0933 18.1152L21.2407 11.9717C21.3393 11.873 21.4566 11.7947 21.5854 11.7412C21.7142 11.6878 21.8523 11.6602 21.9917 11.6602Z" stroke="#00A92A"/>
</svg>
