<svg width="22" height="22" viewBox="0 0 22 22" fill="none" xmlns="http://www.w3.org/2000/svg">
<path fill-rule="evenodd" clip-rule="evenodd" d="M5.30555 12.8516C5.34519 12.8638 5.38562 12.8733 5.42655 12.88C5.68589 13.4911 5.94378 14.1028 6.20021 14.7152C6.6613 15.817 7.12605 16.9518 7.2278 17.2782C7.35522 17.6797 7.48905 17.9528 7.63572 18.1398C7.7118 18.2352 7.79888 18.3195 7.90155 18.3837C7.95546 18.4163 8.01259 18.4434 8.07205 18.4643C8.36538 18.5743 8.63305 18.5285 8.8008 18.4726C8.89929 18.4391 8.99298 18.3929 9.07947 18.3351L9.08405 18.3332L11.6745 16.7181L14.6675 19.0116C14.7115 19.0452 14.7591 19.0736 14.8105 19.0968C15.1698 19.2527 15.5181 19.3077 15.8463 19.2637C16.1726 19.2178 16.432 19.0812 16.6255 18.9263C16.8474 18.7471 17.0244 18.5186 17.1425 18.259L17.1507 18.2388L17.1535 18.2315L17.1553 18.2278V18.226L17.1562 18.2251C17.1712 18.1853 17.1835 18.1446 17.1929 18.1032L19.9245 4.33024C19.9321 4.286 19.9364 4.24127 19.9374 4.19641C19.9374 3.79307 19.7852 3.40899 19.4286 3.17707C19.1225 2.97816 18.7824 2.96899 18.567 2.98549C18.336 3.00382 18.1215 3.06066 17.9775 3.10649C17.8971 3.13246 17.8176 3.1612 17.7392 3.19266L17.7291 3.19724L2.40796 9.20691L2.40613 9.20782C2.35418 9.22659 2.3031 9.24769 2.25305 9.27107C2.13151 9.3256 2.01496 9.39063 1.90471 9.46541C1.69663 9.60749 1.21721 9.99799 1.2988 10.6433C1.36296 11.1567 1.71496 11.4729 1.93038 11.6251C2.04771 11.7085 2.15955 11.7681 2.24205 11.8075C2.27871 11.8258 2.35755 11.857 2.39146 11.8717L2.40063 11.8744L5.30555 12.8516ZM18.2654 4.46224H18.2635L18.2397 4.47232L2.90021 10.4902L2.87638 10.4994L2.86721 10.5022C2.83913 10.513 2.8116 10.5253 2.78471 10.5388C2.81035 10.5532 2.83665 10.5664 2.86355 10.5782L5.74371 11.5481C5.79457 11.5669 5.84365 11.5902 5.89038 11.6177L15.4026 6.04899L15.4118 6.04441C15.4489 6.02229 15.4869 6.0015 15.5255 5.98207C15.5915 5.94816 15.6969 5.89866 15.816 5.86199C15.8985 5.83632 16.1433 5.76391 16.4073 5.84916C16.5475 5.89291 16.6726 5.97542 16.7679 6.08717C16.8633 6.19892 16.9251 6.33536 16.9463 6.48074C16.9804 6.60793 16.9814 6.74175 16.949 6.86941C16.8849 7.12149 16.7089 7.31766 16.5485 7.46799C16.411 7.59632 14.6271 9.31599 12.868 11.0137L10.4728 13.3237L10.0465 13.7362L15.4292 17.863C15.5019 17.8933 15.5808 17.9059 15.6593 17.8997C15.6988 17.8942 15.736 17.8777 15.7666 17.852C15.8037 17.8206 15.8355 17.7834 15.861 17.742L15.8628 17.7411L18.512 4.38249C18.4286 4.40301 18.3469 4.42935 18.2672 4.46132L18.2654 4.46224ZM10.5095 15.8234L9.43513 15.0002L9.1748 16.6548L10.5095 15.8234ZM8.44972 13.3667L9.51763 12.3355L11.9129 10.0237L12.8048 9.16382L6.82813 12.6627L6.86022 12.7379C7.23716 13.6284 7.60994 14.5206 7.97855 15.4146L8.23797 13.7646C8.26165 13.6116 8.33626 13.472 8.44972 13.3667Z" fill="#A600FF"/>
</svg>
